<svg width="159" height="49" viewBox="0 0 159 49" fill="none" xmlns="http://www.w3.org/2000/svg">
<g clip-path="url(#clip0_386_25928)">
<path d="M128.814 20.2102C128.814 12.7901 123.049 7.32812 115.803 7.32812C108.557 7.32812 102.795 12.7901 102.795 20.2102H102.781V33.4174H108.107V20.2102H108.12C108.12 15.5227 111.226 11.9418 115.806 11.9418C120.386 11.9418 123.492 15.5227 123.492 20.2102H123.502V33.4174H128.827V20.2102H128.817H128.814Z" fill="#141414"/>
<path d="M159 20.2102C159 12.7901 153.234 7.32812 145.988 7.32812C138.742 7.32812 132.98 12.7901 132.98 20.2102C132.98 27.6302 138.746 33.0888 145.988 33.0888C148.9 33.0888 151.569 32.207 153.725 30.6714V33.4174H158.993V20.4348C158.993 20.361 159 20.2873 159 20.2102ZM145.988 28.4785C141.405 28.4785 138.303 24.8976 138.303 20.2102C138.303 15.5227 141.408 11.9418 145.988 11.9418C150.568 11.9418 153.674 15.5227 153.674 20.2102C153.674 24.8976 150.568 28.4785 145.988 28.4785Z" fill="#141414"/>
<path d="M26.0193 20.2102C26.0193 12.7901 20.254 7.32812 13.008 7.32812C5.76192 7.32812 0 12.7934 0 20.2102C0 27.6269 5.76527 33.0888 13.008 33.0888C15.9191 33.0888 18.5886 32.207 20.7442 30.6714V33.4174H26.0126V20.4348C26.0126 20.361 26.0193 20.2873 26.0193 20.2102ZM13.008 28.4785C8.42462 28.4785 5.32205 24.8976 5.32205 20.2102C5.32205 15.5227 8.42798 11.9418 13.008 11.9418C17.5879 11.9418 20.6939 15.5227 20.6939 20.2102C20.6939 24.8976 17.5879 28.4785 13.008 28.4785Z" fill="#141414"/>
<path d="M31.3076 0H37.0628V33.4624H31.3076V0Z" fill="#141414"/>
<path d="M68.7707 20.2082C68.7707 12.7881 63.0054 7.32619 55.7594 7.32619C52.8717 7.32619 50.2191 8.19796 48.0701 9.71349V0H42.6406V33.4624H48.0701V20.2082C48.0701 15.5208 51.1761 11.9399 55.756 11.9399C60.336 11.9399 63.4419 15.5208 63.4419 20.2082H63.452V33.4155H68.7774V20.2082H68.7674H68.7707Z" fill="#141414"/>
<path d="M72.6719 21.0852C72.6719 13.9065 78.3331 8.20312 85.8175 8.20312C93.302 8.20312 98.9128 13.9065 98.9128 21.0852C98.9128 28.2638 93.2012 33.9672 85.8175 33.9672C78.4338 33.9672 72.6719 28.2638 72.6719 21.0852ZM93.809 21.0818C93.809 16.5855 90.2195 13.0582 85.8309 13.0582C81.4423 13.0582 77.6817 16.5855 77.6817 21.0818C77.6817 25.5781 81.2711 29.1624 85.8309 29.1624C90.3908 29.1624 93.809 25.5781 93.809 21.0818Z" fill="#141414"/>
<path d="M158.99 41.4805H153.698V46.5736H158.99V41.4805Z" fill="#141414"/>
<path d="M79.2096 41.4805H63.4248V46.5736H79.2096V41.4805Z" fill="#141414"/>
<path d="M85.7941 45.037C85.7941 45.9759 84.9546 46.6398 83.9036 46.6398C82.8527 46.6398 81.8789 45.9557 81.8789 45.0169H82.9433C82.9433 45.3757 83.3328 45.7512 83.9036 45.7512C84.4745 45.7512 84.7934 45.4025 84.7934 45.0471C84.7934 44.752 84.5886 44.4134 84.1588 44.3229L83.4738 44.1586C82.7049 43.954 82.1744 43.4645 82.1744 42.7604C82.1744 41.9523 82.7788 41.332 83.7693 41.332C84.8136 41.332 85.3945 41.8719 85.4986 42.5793H84.4745C84.4745 42.3346 84.1252 42.1803 83.7693 42.1803C83.3295 42.1803 83.1347 42.4352 83.1347 42.7537C83.1347 42.9884 83.1851 43.1929 83.4738 43.2834C83.6686 43.3438 83.8734 43.3974 84.1588 43.4578C85.0788 43.6422 85.7941 44.182 85.7941 45.0404V45.037Z" fill="#141414"/>
<path d="M99.7386 46.5492V45.9356C99.7386 45.9356 99.2282 46.6397 98.1034 46.6397C96.6394 46.6397 95.4541 45.4561 95.4541 44.0143C95.4541 42.5726 96.6394 41.3789 98.1034 41.3789C99.2282 41.3789 99.9199 41.9891 99.9199 41.9891C100.625 42.6061 100.733 43.3169 100.733 43.9372V46.5492H99.742H99.7386ZM98.1235 45.7512C99.0133 45.7512 99.7185 44.9733 99.7185 44.0344C99.7185 43.0956 99.0133 42.2976 98.1235 42.2976C97.2337 42.2976 96.5286 43.0856 96.5286 44.0344C96.5286 44.9833 97.2337 45.7512 98.1235 45.7512Z" fill="#141414"/>
<path d="M104.719 41.37V42.4329C104.564 42.3927 104.413 42.3826 104.289 42.3826C103.554 42.3826 102.869 42.7313 102.869 43.7406V46.5503H101.854V41.4438H102.869V41.9132C103.124 41.5645 103.584 41.3398 104.289 41.3398C104.433 41.3398 104.574 41.3499 104.719 41.37Z" fill="#141414"/>
<path d="M114.295 40.0638C113.905 40.0638 113.6 39.7687 113.6 39.3999C113.6 39.0311 113.905 38.7461 114.295 38.7461C114.684 38.7461 114.99 39.0412 114.99 39.3999C114.99 39.7587 114.674 40.0638 114.295 40.0638ZM114.815 41.4519V46.5484H113.801V41.4519H114.815Z" fill="#141414"/>
<path d="M126.155 46.5492V45.9557C126.155 45.9557 125.745 46.6397 124.519 46.6397C123.055 46.6397 121.87 45.4561 121.87 44.0144C121.87 42.5726 123.055 41.3789 124.519 41.3789C125.745 41.3789 126.155 42.0026 126.155 42.0026V38.9883H127.145V46.5458H126.155V46.5492ZM124.54 45.7512C125.419 45.7512 126.114 44.9733 126.114 44.0345C126.114 43.0956 125.419 42.2976 124.54 42.2976C123.66 42.2976 122.945 43.0856 122.945 44.0345C122.945 44.9834 123.65 45.7512 124.54 45.7512Z" fill="#141414"/>
<path d="M137.715 45.037C137.715 45.9759 136.876 46.6398 135.825 46.6398C134.774 46.6398 133.8 45.9557 133.8 45.0169H134.864C134.864 45.3757 135.254 45.7512 135.825 45.7512C136.395 45.7512 136.714 45.4025 136.714 45.0471C136.714 44.752 136.51 44.4134 136.08 44.3229L135.395 44.1586C134.626 43.954 134.095 43.4645 134.095 42.7604C134.095 41.9523 134.7 41.332 135.69 41.332C136.734 41.332 137.315 41.8719 137.419 42.5793H136.395C136.395 42.3346 136.046 42.1803 135.69 42.1803C135.25 42.1803 135.056 42.4352 135.056 42.7537C135.056 42.9884 135.106 43.1929 135.395 43.2834C135.589 43.3438 135.794 43.3974 136.08 43.4578C137 43.6422 137.715 44.182 137.715 45.0404V45.037Z" fill="#141414"/>
<path d="M145.348 41.37V42.4329C145.193 42.3927 145.042 42.3826 144.918 42.3826C144.182 42.3826 143.497 42.7313 143.497 43.7406V46.5503H142.483V41.4438H143.497V41.9132C143.753 41.5645 144.213 41.3398 144.918 41.3398C145.062 41.3398 145.203 41.3499 145.348 41.37Z" fill="#141414"/>
<path d="M151.24 41.4219L147.721 48.9995H146.617L148.262 45.4555L145.992 41.4219H147.127L148.772 44.3524L150.132 41.4219H151.237H151.24Z" fill="#141414"/>
<path d="M92.4456 41.3398C91.4987 41.3398 90.8675 41.6818 90.6593 42.1781C90.4511 41.6818 89.8198 41.3398 88.873 41.3398C87.9261 41.3398 86.7441 41.8294 86.7441 43.6366V46.547H87.7582V43.6366C87.7582 42.6877 88.4633 42.3793 88.873 42.3793C89.1013 42.3793 89.3229 42.4128 89.521 42.4899C89.9105 42.6374 90.1523 43.023 90.1523 43.4388V46.547H91.1462V43.4455C91.1462 43.0331 91.3879 42.6542 91.7707 42.5C91.9755 42.4161 92.2072 42.3826 92.4456 42.3826C92.8553 42.3826 93.5604 42.6877 93.5604 43.64V46.5503H94.5744V43.64C94.5744 41.8327 93.3892 41.3432 92.4456 41.3432V41.3398Z" fill="#141414"/>
<path d="M118.676 41.3398C118.622 41.3398 118.575 41.3398 118.525 41.3398C118.475 41.3398 118.424 41.3398 118.374 41.3398C117.434 41.3398 116.245 41.8294 116.245 43.6366V46.547H117.259V43.6366C117.259 42.6877 117.964 42.3793 118.374 42.3793C118.424 42.3793 118.471 42.3759 118.522 42.3793H118.535C118.582 42.3793 118.632 42.3793 118.683 42.3793C119.092 42.3793 119.798 42.6844 119.798 43.6366V46.547H120.812V43.6366C120.812 41.8294 119.626 41.3398 118.683 41.3398H118.676Z" fill="#141414"/>
<path d="M130.47 46.547C130.523 46.547 130.57 46.547 130.621 46.547C130.671 46.547 130.721 46.547 130.772 46.547C131.712 46.547 132.901 46.0574 132.901 44.2502V41.3398H131.886V44.2502C131.886 45.1991 131.181 45.5076 130.772 45.5076C130.721 45.5076 130.674 45.5109 130.624 45.5076H130.611C130.564 45.5076 130.513 45.5076 130.463 45.5076C130.053 45.5076 129.348 45.2024 129.348 44.2502V41.3398H128.334V44.2502C128.334 46.0574 129.519 46.547 130.463 46.547H130.47Z" fill="#141414"/>
<path d="M108.657 45.6783H108.16C107.744 45.6783 107.468 45.5442 107.468 45.0748V42.379H108.653V41.4402H107.468V39.5156H106.468V41.4402H105.558V42.379H106.468V45.0748C106.468 46.2249 107.045 46.6943 108.15 46.6976H108.657V45.675V45.6783Z" fill="#141414"/>
<path d="M141.503 45.6783H141.006C140.589 45.6783 140.314 45.5442 140.314 45.0748V42.379H141.499V41.4402H140.314V39.5156H139.313V41.4402H138.403V42.379H139.313V45.0748C139.313 46.2249 139.891 46.6943 140.996 46.6976H141.503V45.675V45.6783Z" fill="#141414"/>
</g>
<defs>
<clipPath id="clip0_386_25928">
<rect width="159" height="49" fill="white"/>
</clipPath>
</defs>
</svg>
